<svg width="646.22" height="100" viewBox="-10 0 389.703 41.868" class="looka-1j8o68f" xmlns="http://www.w3.org/2000/svg" version="1.1" xmlns:xlink="http://www.w3.org/1999/xlink"><path xmlns="http://www.w3.org/2000/svg" d="M47.297 17.013c0 1.42-.288 2.772-.81 4.003-1.565 3.694-5.226 6.29-9.483 6.29a10.23 10.23 0 0 1-5.775-1.773l-.528-.36-.537.35c-1.785 1.16-3.806 1.774-5.843 1.774-2.309 0-4.552-.767-6.488-2.22l-.593-.445-.581.46a10.17 10.17 0 0 1-5.19 2.14q-.254.03-.512.047-.329.025-.664.027C4.618 27.306 0 22.69 0 17.013 0 11.338 4.618 6.72 10.293 6.72c.903 0 1.827.13 2.744.382l.748.207.36-.687C16.326 2.476 20.13 0 24.322 0c4.091 0 7.847 2.384 10.047 6.378l.326.593.67-.107c.603-.097 1.14-.144 1.641-.144 5.675 0 10.292 4.618 10.292 10.293zM30.68 27.467c-1.965 1.15-4.15 1.755-6.358 1.755-2.496 0-4.92-.753-7.053-2.185a12.04 12.04 0 0 1-5.799 2.133v12.698h25.535V29.232c-2.246 0-4.42-.609-6.325-1.765" fill="#ff847c"></path><path d="M84.598 8v18.23q0 8.967-8.78 8.967-3.981 0-6.4-2.176C66.999 30.845 67 29.579 67 27.049v-2.381h5.283v1.302q0 2.345.856 3.33c.856.985 1.414.986 2.53.986q1.6 0 2.344-.893c.744-.893.744-1.674.744-3.237V8zm13.468 6.809q2.716 0 4.837 1.265c2.121 1.265 2.524 2.064 3.33 3.664s1.21 3.442 1.21 5.525q0 .298-.038.968H93.527q.075 2.306 1.21 3.59c1.135 1.284 1.916 1.284 3.478 1.284q1.452 0 2.66-.726c1.208-.726 1.321-1.073 1.545-1.767h4.65q-2.046 6.474-9.004 6.473-2.64-.037-4.892-1.153c-2.252-1.116-2.697-1.904-3.59-3.479s-1.34-3.404-1.34-5.487q0-2.94 1.358-5.358c1.358-2.418 2.109-2.815 3.61-3.609s3.118-1.19 4.854-1.19m4.056 8.073q-.372-2.157-1.377-3.125c-1.005-.968-1.624-.967-2.865-.967q-1.934 0-3.05 1.097c-1.116 1.097-1.179 1.73-1.303 2.995zm15.105-13.32v5.767h3.87v3.535h-3.87v9.525q0 1.339.447 1.785c.447.446.893.447 1.786.447q.966 0 1.637-.149v4.13q-1.116.186-3.126.186-3.051 0-4.539-1.042c-1.488-1.042-1.488-1.897-1.488-3.609V18.864h-3.2v-3.535h3.2V9.563h5.283zM128.91 8v10.008h.111q.894-1.488 2.419-2.344c1.525-.856 2.096-.855 3.237-.855q3.683 0 5.339 1.86c1.656 1.86 1.655 3.2 1.655 5.878v12.018h-5.283V23.626q0-2.343-.763-3.497c-.763-1.154-1.383-1.153-2.623-1.153q-2.12 0-3.106 1.283c-.986 1.283-.986 2.263-.986 4.223v10.083h-5.283V8zm20.5 7.33 4.055 13.133h.075l4.055-13.134h5.246l-6.51 19.236h-5.88l-6.585-19.236h5.544zm24.481-.521q8.409.036 8.408 5.469v10.194q0 2.828.67 4.093h-5.357a7.7 7.7 0 0 1-.372-1.86q-2.344 2.38-6.474 2.38-3.014 0-4.781-1.525c-1.767-1.525-1.767-2.43-1.767-4.241q0-2.642 1.674-4.093 1.71-1.525 6.213-1.935 3.2-.334 4.056-.837c.856-.503.855-.85.855-1.544q0-1.302-.781-1.934c-.781-.632-1.389-.633-2.604-.633q-1.675 0-2.53.688c-.855.688-.906 1.197-1.005 2.214h-5.283q.186-3.162 2.604-4.8c2.418-1.638 3.77-1.636 6.474-1.636m-4.39 14.286q0 2.456 3.237 2.456 4.24-.037 4.278-4.353v-2.046q-.632.631-3.2.93-2.232.26-3.273.911c-1.041.651-1.042 1.135-1.042 2.102M191.564 8v11.943h-3.981V8h3.98zm13.059 6.809q3.87 0 6.045 1.562c2.175 1.562 2.264 2.567 2.437 4.576h-5.022q-.112-1.375-1.005-1.99c-.893-.615-1.463-.614-2.604-.614q-1.488 0-2.214.447c-.726.447-.725.744-.725 1.339q0 .669.483 1.116c.483.447.813.558 1.47.781s1.383.41 2.176.558q3.609.707 5.097 1.452c1.488.745 1.718 1.09 2.177 1.785s.688 1.55.688 2.568q0 3.236-2.362 4.966c-2.362 1.73-3.715 1.73-6.418 1.73q-4.243 0-6.604-1.823c-2.361-1.823-2.387-2.864-2.437-4.948h5.023q0 1.488 1.153 2.363c1.153.875 1.736.874 2.902.874q1.488 0 2.474-.651c.986-.651.986-1.036.986-1.805q0-.744-.614-1.227c-.614-.483-.986-.608-1.73-.856s-1.897-.533-3.46-.856q-1.86-.372-3.311-1.004c-1.451-.632-1.705-.974-2.214-1.656s-.763-1.52-.763-2.511q0-1.898.912-3.312c.912-1.414 1.538-1.655 2.79-2.139s2.81-.725 4.67-.725M235.838 8l6.213 18.268h.075L248.004 8h8.222v26.565h-5.469V15.739h-.074l-6.511 18.826h-4.502l-6.51-18.64h-.075v18.64h-5.47V8zm33.82 6.809q8.408.036 8.408 5.469v10.194q0 2.828.67 4.093h-5.358a7.7 7.7 0 0 1-.372-1.86q-2.344 2.38-6.474 2.38-3.013 0-4.78-1.525c-1.767-1.525-1.768-2.43-1.768-4.241q0-2.642 1.674-4.093 1.712-1.525 6.214-1.935 3.2-.334 4.055-.837c.855-.503.856-.85.856-1.544q0-1.302-.781-1.934c-.781-.632-1.39-.633-2.605-.633q-1.674 0-2.53.688c-.856.688-.905 1.197-1.004 2.214h-5.284q.187-3.162 2.605-4.8c2.418-1.638 3.77-1.636 6.474-1.636m-4.39 14.286q0 2.456 3.236 2.456 4.242-.037 4.279-4.353v-2.046q-.633.631-3.2.93-2.233.26-3.274.911c-1.041.651-1.042 1.135-1.042 2.102zM291.05 14.81q2.716 0 4.836 1.265c2.12 1.265 2.524 2.064 3.33 3.664s1.21 3.442 1.21 5.525q0 .298-.038.968h-13.877q.074 2.306 1.209 3.59c1.135 1.284 1.916 1.284 3.478 1.284q1.452 0 2.66-.726c1.208-.726 1.321-1.073 1.545-1.767h4.65q-2.046 6.473-9.003 6.473-2.642-.037-4.893-1.153c-2.251-1.116-2.697-1.904-3.59-3.479s-1.34-3.404-1.34-5.487q0-2.94 1.358-5.358c1.358-2.418 2.109-2.815 3.61-3.609s3.118-1.19 4.855-1.19m4.055 8.073q-.372-2.157-1.377-3.125c-1.005-.968-1.624-.967-2.864-.967q-1.935 0-3.051 1.097c-1.116 1.097-1.178 1.73-1.302 2.995zm16.296-8.073q3.87 0 6.046 1.562c2.176 1.562 2.263 2.567 2.437 4.576h-5.023q-.112-1.375-1.005-1.99c-.893-.615-1.463-.614-2.604-.614q-1.488 0-2.214.447c-.726.447-.725.744-.725 1.339q0 .669.484 1.116c.484.447.812.558 1.47.781s1.382.41 2.176.558q3.609.707 5.097 1.452c1.488.745 1.717 1.09 2.176 1.785s.689 1.55.689 2.568q0 3.236-2.363 4.966c-2.363 1.73-3.714 1.73-6.418 1.73q-4.241 0-6.604-1.823c-2.363-1.823-2.387-2.864-2.437-4.948h5.023q0 1.488 1.153 2.363c1.153.875 1.737.874 2.902.874q1.489 0 2.475-.651c.986-.651.985-1.036.985-1.805q0-.744-.613-1.227c-.613-.483-.986-.608-1.73-.856s-1.898-.533-3.46-.856q-1.86-.372-3.312-1.004c-1.452-.632-1.705-.974-2.214-1.656s-.762-1.52-.762-2.511q0-1.898.911-3.312c.911-1.414 1.538-1.655 2.79-2.139s2.81-.725 4.67-.725m18.789-5.246v5.766h3.869v3.535h-3.87v9.525q0 1.339.447 1.785c.447.446.893.447 1.786.447q.967 0 1.637-.149v4.13q-1.116.186-3.125.186-3.05 0-4.54-1.042c-1.49-1.042-1.487-1.897-1.487-3.609V18.864h-3.2v-3.535h3.2V9.563zm17.635 5.246q.669 0 1.153.186v4.91a9 9 0 0 0-1.897-.185q-5.21 0-5.209 6.176v8.669h-5.283V15.329h5.023v3.572h.074q.782-1.86 2.474-2.976c1.692-1.116 2.35-1.116 3.665-1.116zm11.906 0q4.613 0 7.292 2.809c2.679 2.809 2.679 4.322 2.679 7.348q0 4.576-2.735 7.348c-2.735 2.772-4.235 2.771-7.236 2.771q-4.577 0-7.255-2.809c-2.678-2.809-2.68-4.309-2.68-7.31q0-4.65 2.735-7.404c2.735-2.754 4.223-2.753 7.2-2.753m-4.651 10.157q0 2.94 1.19 4.539c1.19 1.599 1.948 1.6 3.46 1.6q2.344 0 3.517-1.638c1.173-1.638 1.172-2.591 1.172-4.501q0-2.977-1.21-4.577c-1.21-1.6-1.978-1.6-3.516-1.6q-2.232 0-3.422 1.6c-1.19 1.6-1.191 2.592-1.191 4.577" fill="#fecea8"></path></svg>